<svg xmlns="http://www.w3.org/2000/svg" width="220" height="62" viewBox="0 0 220 62" role="img" aria-label="3-4-5-6-7 whose 7 is a Club" xmlns:c2pa="http://c2pa.org/manifest"><metadata><c2pa:manifest>AAAWgmp1bWIAAAAeanVtZGMycGEAEQAQgAAAqgA4m3EDYzJwYQAAABZcanVtYgAAAEdqdW1kYzJtYQARABCAAACqADibcQN1cm46YzJwYTpmM2MwZjYzNC1jYTRmLTQ5ZGEtYTU2ZC1hZTg2NzMzYTNkMWIAAAADl2p1bWIAAAApanVtZGMyYXMAEQAQgAAAqgA4m3EDYzJwYS5hc3NlcnRpb25zAAAAALxqdW1iAAAARGp1bWRjYm9yABEAEIAAAKoAOJtxE2MycGEuaW5ncmVkaWVudC52MwAAAAAYYzJzaMRsfTuR1QjDTj3hEDsHZWEAAABwY2JvcqNpZGM6Zm9ybWF0bWltYWdlL3N2Zyt4bWxqaW5zdGFuY2VJRHgseG1wOmlpZDo2NDI4NjkzYy1jZDE0LTRiMTMtODExZS0yN2U1ODMzYmJiZTBscmVsYXRpb25zaGlwaHBhcmVudE9mAAAB4mp1bWIAAABBanVtZGNib3IAEQAQgAAAqgA4m3ETYzJwYS5hY3Rpb25zLnYyAAAAABhjMnNo5H6MmN2Wnw5ssI9ziivkPwAAAZljYm9yomdhY3Rpb25zgqJmYWN0aW9ua2MycGEub3BlbmVkanBhcmFtZXRlcnOha2luZ3JlZGllbnRzgaJjdXJseC1zZWxmI2p1bWJmPWMycGEuYXNzZXJ0aW9ucy9jMnBhLmluZ3JlZGllbnQudjNkaGFzaFggmSk4q3DJsZIcR4JYLp8QgwQinQoeOEGtiynEgIhTeBSkZmFjdGlvbngdY29tLmFudGhyb3BpYy5jbGF1ZGUucHJvdmlkZWRqcGFyYW1ldGVyc6F4H2NvbS5hbnRocm9waWMub3JpZ2luLWNvbmZpZGVuY2VndW5rbm93bmtkZXNjcmlwdGlvbnhmQ2xhdWRlIHByb3ZpZGVkIHRoaXMgZmlsZSBhdCB0aGUgcmVxdWVzdCBvZiBhIHVzZXIgYW5kIG1heSBoYXZlIGNyZWF0ZWQgb3IgbW9kaWZpZWQgdGhlIGZpbGUgY29udGVudHMubXNvZnR3YXJlQWdlbnShZG5hbWVmQ2xhdWRlcmFsbEFjdGlvbnNJbmNsdWRlZPUAAADIanVtYgAAAEBqdW1kY2JvcgARABCAAACqADibcRNjMnBhLmhhc2guZGF0YQAAAAAYYzJzaOBAfIyUKgDF3cmCdeVqp8wAAACAY2JvcqVjYWxnZnNoYTI1NmNwYWRNAAAAAAAAAAAAAAAAAGRoYXNoWCBtmFQ3YhWddjOdum6nSDrrUkjfOTfGLq3cfERdnzV8KWRuYW1lbmp1bWJmIG1hbmlmZXN0amV4Y2x1c2lvbnOBomVzdGFydBjIZmxlbmd0aBkeBAAAAj5qdW1iAAAAJ2p1bWRjMmNsABEAEIAAAKoAOJtxA2MycGEuY2xhaW0udjIAAAACD2Nib3KlY2FsZ2ZzaGEyNTZpc2lnbmF0dXJleE1zZWxmI2p1bWJmPS9jMnBhL3VybjpjMnBhOmYzYzBmNjM0LWNhNGYtNDlkYS1hNTZkLWFlODY3MzNhM2QxYi9jMnBhLnNpZ25hdHVyZWppbnN0YW5jZUlEeCx4bXA6aWlkOjAyOTMwMmIyLTVlMzUtNDJhOC05Zjk2LTU1ZTkyMzcxZDg2ZnJjcmVhdGVkX2Fzc2VydGlvbnODomN1cmx4LXNlbGYjanVtYmY9YzJwYS5hc3NlcnRpb25zL2MycGEuaW5ncmVkaWVudC52M2RoYXNoWCCZKTircMmxkhxHglgunxCDBCKdCh44Qa2LKcSAiFN4FKJjdXJseCpzZWxmI2p1bWJmPWMycGEuYXNzZXJ0aW9ucy9jMnBhLmFjdGlvbnMudjJkaGFzaFggFn9h7P9Zdbalk7jQf5700eoCla2ncCjcxJWwRFIlwT6iY3VybHgpc2VsZiNqdW1iZj1jMnBhLmFzc2VydGlvbnMvYzJwYS5oYXNoLmRhdGFkaGFzaFggIvotIZv6K3Mmg+tUiG8bkZIbs/7v1yjDSNgo6h45nu50Y2xhaW1fZ2VuZXJhdG9yX2luZm+jZG5hbWVvQW50aHJvcGljIEZpbGVzZ3ZlcnNpb25lMS4wLjBrc3BlY1ZlcnNpb25lMi40LjAAABA4anVtYgAAAChqdW1kYzJjcwARABCAAACqADibcQNjMnBhLnNpZ25hdHVyZQAAABAIY2JvctKEWQISogEmGCFZAgowggIGMIIBjaADAgECAhRA5aAK7sI50L64g/oGQgU9Z1UTADAKBggqhkjOPQQDAzBJMRcwFQYDVQQKEw5BbnRocm9waWMsIFBCQzEuMCwGA1UEAxMlQW50aHJvcGljIENvbnRlbnQgQ3JlZGVudGlhbHMgUm9vdCBDQTAeFw0yNjA4MDcxODQzNTZaFw0yODA4MDYxOTQzNTZaMEQxFzAVBgNVBAoTDkFudGhyb3BpYywgUEJDMSkwJwYDVQQDEyBBbnRocm9waWMgQ2xhdWRlIENvbnRlbnQgU2lnbmluZzBZMBMGByqGSM49AgEGCCqGSM49AwEHA0IABJh6CmvLUBgFFNU0vUKlOVtE6djd17L5SuwX0LemFisBM3dkd/3cyjxFA3Qo5S46fX0/ihY0VZ7mfb9KF703t5OjWDBWMA4GA1UdDwEB/wQEAwIHgDAVBgNVHSUEDjAMBgorBgEEAYPoXgIBMAwGA1UdEwEB/wQCMAAwHwYDVR0jBBgwFoAUzlHiBIFOZFsj+OPEz5o+nMHXXMIwCgYIKoZIzj0EAwMDZwAwZAIwMXMdFJ4BetLLVY7ORuE9noqbbAZOZn/aArXyTwFAZfKrPzxF2vPoJNf1+UCdg1XGAjBwX1zd9WGqYkqmL5SFqw1QySjr1zJfpJM9+1rdDwSPLMOPOjKuiXjoU/pUUeG9RwmhY3BhZFkNngAAAAAAAAAAAAAAAAAAAAAAAAAAAAAAAAAAAAAAAAAAAAAAAAAAAAAAAAAAAAAAAAAAAAAAAAAAAAAAAAAAAAAAAAAAAAAAAAAAAAAAAAAAAAAAAAAAAAAAAAAAAAAAAAAAAAAAAAAAAAAAAAAAAAAAAAAAAAAAAAAAAAAAAAAAAAAAAAAAAAAAAAAAAAAAAAAAAAAAAAAAAAAAAAAAAAAAAAAAAAAAAAAAAAAAAAAAAAAAAAAAAAAAAAAAAAAAAAAAAAAAAAAAAAAAAAAAAAAAAAAAAAAAAAAAAAAAAAAAAAAAAAAAAAAAAAAAAAAAAAAAAAAAAAAAAAAAAAAAAAAAAAAAAAAAAAAAAAAAAAAAAAAAAAAAAAAAAAAAAAAAAAAAAAAAAAAAAAAAAAAAAAAAAAAAAAAAAAAAAAAAAAAAAAAAAAAAAAAAAAAAAAAAAAAAAAAAAAAAAAAAAAAAAAAAAAAAAAAAAAAAAAAAAAAAAAAAAAAAAAAAAAAAAAAAAAAAAAAAAAAAAAAAAAAAAAAAAAAAAAAAAAAAAAAAAAAAAAAAAAAAAAAAAAAAAAAAAAAAAAAAAAAAAAAAAAAAAAAAAAAAAAAAAAAAAAAAAAAAAAAAAAAAAAAAAAAAAAAAAAAAAAAAAAAAAAAAAAAAAAAAAAAAAAAAAAAAAAAAAAAAAAAAAAAAAAAAAAAAAAAAAAAAAAAAAAAAAAAAAAAAAAAAAAAAAAAAAAAAAAAAAAAAAAAAAAAAAAAAAAAAAAAAAAAAAAAAAAAAAAAAAAAAAAAAAAAAAAAAAAAAAAAAAAAAAAAAAAAAAAAAAAAAAAAAAAAAAAAAAAAAAAAAAAAAAAAAAAAAAAAAAAAAAAAAAAAAAAAAAAAAAAAAAAAAAAAAAAAAAAAAAAAAAAAAAAAAAAAAAAAAAAAAAAAAAAAAAAAAAAAAAAAAAAAAAAAAAAAAAAAAAAAAAAAAAAAAAAAAAAAAAAAAAAAAAAAAAAAAAAAAAAAAAAAAAAAAAAAAAAAAAAAAAAAAAAAAAAAAAAAAAAAAAAAAAAAAAAAAAAAAAAAAAAAAAAAAAAAAAAAAAAAAAAAAAAAAAAAAAAAAAAAAAAAAAAAAAAAAAAAAAAAAAAAAAAAAAAAAAAAAAAAAAAAAAAAAAAAAAAAAAAAAAAAAAAAAAAAAAAAAAAAAAAAAAAAAAAAAAAAAAAAAAAAAAAAAAAAAAAAAAAAAAAAAAAAAAAAAAAAAAAAAAAAAAAAAAAAAAAAAAAAAAAAAAAAAAAAAAAAAAAAAAAAAAAAAAAAAAAAAAAAAAAAAAAAAAAAAAAAAAAAAAAAAAAAAAAAAAAAAAAAAAAAAAAAAAAAAAAAAAAAAAAAAAAAAAAAAAAAAAAAAAAAAAAAAAAAAAAAAAAAAAAAAAAAAAAAAAAAAAAAAAAAAAAAAAAAAAAAAAAAAAAAAAAAAAAAAAAAAAAAAAAAAAAAAAAAAAAAAAAAAAAAAAAAAAAAAAAAAAAAAAAAAAAAAAAAAAAAAAAAAAAAAAAAAAAAAAAAAAAAAAAAAAAAAAAAAAAAAAAAAAAAAAAAAAAAAAAAAAAAAAAAAAAAAAAAAAAAAAAAAAAAAAAAAAAAAAAAAAAAAAAAAAAAAAAAAAAAAAAAAAAAAAAAAAAAAAAAAAAAAAAAAAAAAAAAAAAAAAAAAAAAAAAAAAAAAAAAAAAAAAAAAAAAAAAAAAAAAAAAAAAAAAAAAAAAAAAAAAAAAAAAAAAAAAAAAAAAAAAAAAAAAAAAAAAAAAAAAAAAAAAAAAAAAAAAAAAAAAAAAAAAAAAAAAAAAAAAAAAAAAAAAAAAAAAAAAAAAAAAAAAAAAAAAAAAAAAAAAAAAAAAAAAAAAAAAAAAAAAAAAAAAAAAAAAAAAAAAAAAAAAAAAAAAAAAAAAAAAAAAAAAAAAAAAAAAAAAAAAAAAAAAAAAAAAAAAAAAAAAAAAAAAAAAAAAAAAAAAAAAAAAAAAAAAAAAAAAAAAAAAAAAAAAAAAAAAAAAAAAAAAAAAAAAAAAAAAAAAAAAAAAAAAAAAAAAAAAAAAAAAAAAAAAAAAAAAAAAAAAAAAAAAAAAAAAAAAAAAAAAAAAAAAAAAAAAAAAAAAAAAAAAAAAAAAAAAAAAAAAAAAAAAAAAAAAAAAAAAAAAAAAAAAAAAAAAAAAAAAAAAAAAAAAAAAAAAAAAAAAAAAAAAAAAAAAAAAAAAAAAAAAAAAAAAAAAAAAAAAAAAAAAAAAAAAAAAAAAAAAAAAAAAAAAAAAAAAAAAAAAAAAAAAAAAAAAAAAAAAAAAAAAAAAAAAAAAAAAAAAAAAAAAAAAAAAAAAAAAAAAAAAAAAAAAAAAAAAAAAAAAAAAAAAAAAAAAAAAAAAAAAAAAAAAAAAAAAAAAAAAAAAAAAAAAAAAAAAAAAAAAAAAAAAAAAAAAAAAAAAAAAAAAAAAAAAAAAAAAAAAAAAAAAAAAAAAAAAAAAAAAAAAAAAAAAAAAAAAAAAAAAAAAAAAAAAAAAAAAAAAAAAAAAAAAAAAAAAAAAAAAAAAAAAAAAAAAAAAAAAAAAAAAAAAAAAAAAAAAAAAAAAAAAAAAAAAAAAAAAAAAAAAAAAAAAAAAAAAAAAAAAAAAAAAAAAAAAAAAAAAAAAAAAAAAAAAAAAAAAAAAAAAAAAAAAAAAAAAAAAAAAAAAAAAAAAAAAAAAAAAAAAAAAAAAAAAAAAAAAAAAAAAAAAAAAAAAAAAAAAAAAAAAAAAAAAAAAAAAAAAAAAAAAAAAAAAAAAAAAAAAAAAAAAAAAAAAAAAAAAAAAAAAAAAAAAAAAAAAAAAAAAAAAAAAAAAAAAAAAAAAAAAAAAAAAAAAAAAAAAAAAAAAAAAAAAAAAAAAAAAAAAAAAAAAAAAAAAAAAAAAAAAAAAAAAAAAAAAAAAAAAAAAAAAAAAAAAAAAAAAAAAAAAAAAAAAAAAAAAAAAAAAAAAAAAAAAAAAAAAAAAAAAAAAAAAAAAAAAAAAAAAAAAAAAAAAAAAAAAAAAAAAAAAAAAAAAAAAAAAAAAAAAAAAAAAAAAAAAAAAAAAAAAAAAAAAAAAAAAAAAAAAAAAAAAAAAAAAAAAAAAAAAAAAAAAAAAAAAAAAAAAAAAAAAAAAAAAAAAAAAAAAAAAAAAAAAAAAAAAAAAAAAAAAAAAAAAAAAAAAAAAAAAAAAAAAAAAAAAAAAAAAAAAAAAAAAAAAAAAAAAAAAAAAAAAAAAAAAAAAAAAAAAAAAAAAAAAAAAAAAAAAAAAAAAAAAAAAAAAAAAAAAAAAAAAAAAAAAAAAAAAAAAAAAAAAAAAAAAAAAAAAAAAAAAAAAAAAAAAAAAAAAAAAAAAAAAAAAAAAAAAAAAAAAAAAAAAAAAAAAAAAAAAAAAAAAAAAAAAAAAAAAAAAAAAAAAAAAAAAAAAAAAAAAAAAAAAAAAAAAAAAAAAAAAAAAAAAAAAAAAAAAAAAAAAAAAAAAAAAAAAAAAAAAAAAAAAAAAAAAAAAAAAAAAAAAAAAAAAAAAAAAAAAAAAAAAAAAAAAAAAAAAAAAAAAAAAAAAAAAAAAAAAAAAAAAAAAAAAAAAAAAAAAAAAAAAAAAAAAAAAAAAAAAAAAAAAAAAAAAAAAAAAAAAAAAAAAAAAAAAAAAAAAAAAAAAAAAAAAAAAAAAAAAAAAAAAAAAAAAAAAAAAAAAAAAAAAAAAAAAAAAAAAAAAAAAAAAAAAAAAAAAAAAAAAAAAAAAAAAAAAAAAAAAAAAAAAAAAAAAAAAAAAAAAAAAAAAAAAAAAAAAAAAAAAAAAAAAAAAAAAAAAAAAAAAAAAAAAAAAAAAAAAAAAAAAAAAAAAAAAAAAAAAAAAAAAAAAAAAAAAAAAAAAAAAAAAAAAAAAAAAAAAAAAAAAAAAAAAAAAAAAAAAAAAAAAAAAAAAAAAAAAAAAAAAAAAAAAAAAAAAAAAAAAAAAAAAAAAAAAAAAAAAAAAAAAAAAAAAAAAAAAAAAAAAAAAAAAAAAAAAAAAAAAAAAAAAAAAAAAAAAAAAAAAAAAAAAAAAAAAAAAAAAAAAAAAAAAAAAAAAAAAAAAAAAAAAAAAAAAAAAAAAAAAAAAAAAAAAAAAAAAAAAAAAAAAAAAAAAAAAAAAAAAAAAAAAAAAAAAAAAAAAAAAAAAAAAAAAAAAAAAAAAAAAAAAAAAAAAAAAAAAAAAAAAAAAAAAAAAAAAAAAAAAAAAAAAAAAAAAAAAAAAAAAAAAAAAAAAAAAAAAAAAAAAAAAAAAAAAAAAAAAAAAAAAAAAAAAAAAAAAAAAAAAAAAAAAAAAAAAAAAAAAAAAAAAAAAAAAAAAAAAAAAAAAAAAAAAAAAAAAAAAAAAAAAAAAAAAAAAAAAAAAAAAAAAAAAAAAAAAAAAAAAAAAAAAAAAAAAAAAAAAAAAAAAAAAAAAAAAAAAAAAAAAAAAAAAAAAAAAAAAAAAAAAAAAAAAAAAAAAAAAAAAAAAAAAAAAAAAAAAAAAAAAAAAAAAAAAAAAAAAAAAAAAAAAAAAAAAAAAAAAAAAAAAAAAAAAAAAAAAAAAAAAAAAAAAAAAAAAAAAAAAAAAAAAAAAAAAAAAAAAAAAAAAAAAAAAAAAAAAAAAAAAAAAAAAAAAAAAAAAAAAAAAAAAAAAPZYQPRHVYELnrE8V60MIvmrw2oMvt9qDSDaT2OxtTTcOEDUovYquaqVQzqfJfi8dvB/08xgSuyyWHayRMsMvlaJnLs=</c2pa:manifest></metadata><title>3-4-5-6-7 whose 7 is a Club</title><g transform="translate(4.00 4.00) scale(0.6)"><rect x="0.5" y="0.5" width="63" height="89" rx="7" fill="#faf7ee" stroke="#000" stroke-opacity="0.28"/><text x="8" y="21" font-family="system-ui, -apple-system, 'Segoe UI', Roboto, Helvetica, Arial, sans-serif" font-weight="700" font-size="18" fill="#ea580c">3</text><g transform="translate(6.00 25.00) scale(0.1500)"><path fill="#ea580c" d="M50 3 L90 50 L50 97 L10 50 Z"/></g><g transform="rotate(180 32.0 45.0)"><text x="8" y="21" font-family="system-ui, -apple-system, 'Segoe UI', Roboto, Helvetica, Arial, sans-serif" font-weight="700" font-size="18" fill="#ea580c">3</text><g transform="translate(6.00 25.00) scale(0.1500)"><path fill="#ea580c" d="M50 3 L90 50 L50 97 L10 50 Z"/></g></g><g transform="translate(13.00 26.00) scale(0.3800)"><path fill="#ea580c" d="M50 3 L90 50 L50 97 L10 50 Z"/></g></g><g transform="translate(47.40 4.00) scale(0.6)"><rect x="0.5" y="0.5" width="63" height="89" rx="7" fill="#faf7ee" stroke="#000" stroke-opacity="0.28"/><text x="8" y="21" font-family="system-ui, -apple-system, 'Segoe UI', Roboto, Helvetica, Arial, sans-serif" font-weight="700" font-size="18" fill="#1d4ed8">4</text><g transform="translate(6.00 25.00) scale(0.1500)"><g fill="#1d4ed8"><circle cx="50" cy="27" r="22"/><circle cx="26" cy="63" r="22"/><circle cx="74" cy="63" r="22"/><path d="M50 48 L40 96 L60 96 Z"/><rect x="30" y="48" width="40" height="22"/></g></g><g transform="rotate(180 32.0 45.0)"><text x="8" y="21" font-family="system-ui, -apple-system, 'Segoe UI', Roboto, Helvetica, Arial, sans-serif" font-weight="700" font-size="18" fill="#1d4ed8">4</text><g transform="translate(6.00 25.00) scale(0.1500)"><g fill="#1d4ed8"><circle cx="50" cy="27" r="22"/><circle cx="26" cy="63" r="22"/><circle cx="74" cy="63" r="22"/><path d="M50 48 L40 96 L60 96 Z"/><rect x="30" y="48" width="40" height="22"/></g></g></g><g transform="translate(13.00 26.00) scale(0.3800)"><g fill="#1d4ed8"><circle cx="50" cy="27" r="22"/><circle cx="26" cy="63" r="22"/><circle cx="74" cy="63" r="22"/><path d="M50 48 L40 96 L60 96 Z"/><rect x="30" y="48" width="40" height="22"/></g></g></g><g transform="translate(90.80 4.00) scale(0.6)"><rect x="0.5" y="0.5" width="63" height="89" rx="7" fill="#faf7ee" stroke="#000" stroke-opacity="0.28"/><text x="8" y="21" font-family="system-ui, -apple-system, 'Segoe UI', Roboto, Helvetica, Arial, sans-serif" font-weight="700" font-size="18" fill="#1d4ed8">5</text><g transform="translate(6.00 25.00) scale(0.1500)"><g fill="#1d4ed8"><circle cx="50" cy="27" r="22"/><circle cx="26" cy="63" r="22"/><circle cx="74" cy="63" r="22"/><path d="M50 48 L40 96 L60 96 Z"/><rect x="30" y="48" width="40" height="22"/></g></g><g transform="rotate(180 32.0 45.0)"><text x="8" y="21" font-family="system-ui, -apple-system, 'Segoe UI', Roboto, Helvetica, Arial, sans-serif" font-weight="700" font-size="18" fill="#1d4ed8">5</text><g transform="translate(6.00 25.00) scale(0.1500)"><g fill="#1d4ed8"><circle cx="50" cy="27" r="22"/><circle cx="26" cy="63" r="22"/><circle cx="74" cy="63" r="22"/><path d="M50 48 L40 96 L60 96 Z"/><rect x="30" y="48" width="40" height="22"/></g></g></g><g transform="translate(13.00 26.00) scale(0.3800)"><g fill="#1d4ed8"><circle cx="50" cy="27" r="22"/><circle cx="26" cy="63" r="22"/><circle cx="74" cy="63" r="22"/><path d="M50 48 L40 96 L60 96 Z"/><rect x="30" y="48" width="40" height="22"/></g></g></g><g transform="translate(134.20 4.00) scale(0.6)"><rect x="0.5" y="0.5" width="63" height="89" rx="7" fill="#faf7ee" stroke="#000" stroke-opacity="0.28"/><text x="8" y="21" font-family="system-ui, -apple-system, 'Segoe UI', Roboto, Helvetica, Arial, sans-serif" font-weight="700" font-size="18" fill="#1d4ed8">6</text><g transform="translate(6.00 25.00) scale(0.1500)"><g fill="#1d4ed8"><circle cx="50" cy="27" r="22"/><circle cx="26" cy="63" r="22"/><circle cx="74" cy="63" r="22"/><path d="M50 48 L40 96 L60 96 Z"/><rect x="30" y="48" width="40" height="22"/></g></g><g transform="rotate(180 32.0 45.0)"><text x="8" y="21" font-family="system-ui, -apple-system, 'Segoe UI', Roboto, Helvetica, Arial, sans-serif" font-weight="700" font-size="18" fill="#1d4ed8">6</text><g transform="translate(6.00 25.00) scale(0.1500)"><g fill="#1d4ed8"><circle cx="50" cy="27" r="22"/><circle cx="26" cy="63" r="22"/><circle cx="74" cy="63" r="22"/><path d="M50 48 L40 96 L60 96 Z"/><rect x="30" y="48" width="40" height="22"/></g></g></g><g transform="translate(13.00 26.00) scale(0.3800)"><g fill="#1d4ed8"><circle cx="50" cy="27" r="22"/><circle cx="26" cy="63" r="22"/><circle cx="74" cy="63" r="22"/><path d="M50 48 L40 96 L60 96 Z"/><rect x="30" y="48" width="40" height="22"/></g></g></g><g transform="translate(177.60 4.00) scale(0.6)"><rect x="0.5" y="0.5" width="63" height="89" rx="7" fill="#faf7ee" stroke="#000" stroke-opacity="0.28"/><text x="8" y="21" font-family="system-ui, -apple-system, 'Segoe UI', Roboto, Helvetica, Arial, sans-serif" font-weight="700" font-size="18" fill="#1d4ed8">7</text><g transform="translate(6.00 25.00) scale(0.1500)"><g fill="#1d4ed8"><circle cx="50" cy="27" r="22"/><circle cx="26" cy="63" r="22"/><circle cx="74" cy="63" r="22"/><path d="M50 48 L40 96 L60 96 Z"/><rect x="30" y="48" width="40" height="22"/></g></g><g transform="rotate(180 32.0 45.0)"><text x="8" y="21" font-family="system-ui, -apple-system, 'Segoe UI', Roboto, Helvetica, Arial, sans-serif" font-weight="700" font-size="18" fill="#1d4ed8">7</text><g transform="translate(6.00 25.00) scale(0.1500)"><g fill="#1d4ed8"><circle cx="50" cy="27" r="22"/><circle cx="26" cy="63" r="22"/><circle cx="74" cy="63" r="22"/><path d="M50 48 L40 96 L60 96 Z"/><rect x="30" y="48" width="40" height="22"/></g></g></g><g transform="translate(13.00 26.00) scale(0.3800)"><g fill="#1d4ed8"><circle cx="50" cy="27" r="22"/><circle cx="26" cy="63" r="22"/><circle cx="74" cy="63" r="22"/><path d="M50 48 L40 96 L60 96 Z"/><rect x="30" y="48" width="40" height="22"/></g></g></g></svg>